<svg xmlns="http://www.w3.org/2000/svg" viewBox="0 0 718.88 476"><defs><style>.cls-1{fill:#4e89ae;}</style></defs><g id="Layer_2" data-name="Layer 2"><g id="Layer_1-2" data-name="Layer 1"><path class="cls-1" d="M147.9,388.22a68.12,68.12,0,1,1,0-136.24V172.2a147.9,147.9,0,0,0,0,295.8Z"/><ellipse class="cls-1" cx="147.9" cy="212.09" rx="39.06" ry="39.89"/><ellipse class="cls-1" cx="147.9" cy="428.11" rx="39.06" ry="39.89"/><path class="cls-1" d="M571,260a68.12,68.12,0,0,1,0,136.24V476a147.9,147.9,0,0,0,0-295.8Z"/><ellipse class="cls-1" cx="570.98" cy="436.11" rx="39.06" ry="39.89"/><ellipse class="cls-1" cx="570.98" cy="220.09" rx="39.06" ry="39.89"/><path class="cls-1" d="M291.32,147.9a68.12,68.12,0,1,1,136.23,0h79.79a147.9,147.9,0,1,0-295.8,0Z"/><path class="cls-1" d="M359.44,214.45a68.12,68.12,0,0,1-68.12-68.12H211.54a147.9,147.9,0,0,0,147.9,147.9Z"/><ellipse class="cls-1" cx="359.44" cy="254.34" rx="39.06" ry="39.89"/><rect class="cls-1" x="427.55" y="146.98" width="79.78" height="289.13"/><circle class="cls-1" cx="467.45" cy="436.11" r="39.89"/></g></g></svg>