<svg xmlns="http://www.w3.org/2000/svg" viewBox="0 0 467.4 467.4"><defs><style>.cls-1{fill:#ffa608;}.cls-2{fill:none;stroke:#fff;stroke-linecap:round;stroke-miterlimit:10;stroke-width:10px;}</style></defs><title>Asset 1</title><g id="Layer_2" data-name="Layer 2"><g id="Layer_1-2" data-name="Layer 1"><circle class="cls-1" cx="233.7" cy="233.7" r="233.7"/><g id="Layer_2-2" data-name="Layer 2"><g id="Layer_1-2-2" data-name="Layer 1-2"><path class="cls-2" d="M208,235.31c11.48-11.39,15.12-14.47,18.85-21.18,4-7.32-2.64-17.25-10.16-20.88l-67.91-32.9c-5.15-2.5-12-8.46-9.64-13.65s15.17-5.49,20.84-4.83c111.91,12.48,114.75,31.48,174.29-22.44C341.77,112.57,371,87.81,383,101c9.73,10.78-14.65,38.24-24.11,47.64-53.54,53.4-40.4,45.37-42,76.65-1.89,38.14,11.2,104.73-1,113.52-11.25,1.65-12.1-12.19-19.76-28.92-6.57-14.37-10.72-39-15.78-52.6s-15.45-18-27.27-9.69c-19.52,13.85-38.85,15.41-54.44,15.08-17.87-.38-45.23.47-60.73-.81-9.59-.8-7.75,8.84.28,12.43,18.2,8.13,26.19,16.73,32.94,23.63,14.94,15.22,14.51,25,20.09,33.46,3.59,5.44,9.17.28,10.3-4a57.69,57.69,0,0,0,2.13-18.1,99.57,99.57,0,0,1,.38-17.15"/><path class="cls-2" d="M207.64,234.93c-10.53-25.19-40.92-39.94-67.39-31.52C125.37,208,113.69,220,108,234.6c-7.33,18.9.42,42.72.42,42.72h0c-20-4.63-42.86,5.72-52.65,24.24-9.78,19.05-6,43.58,9.69,57.8"/><path class="cls-2" d="M393.47,370.18c14.74-5.67,23.53-22,23.53-37.14-.28-5.06-.66-10.07-4.11-16.26-10.3-18.53-36.48-25.52-54-13.56a30.45,30.45,0,0,0-1.23-29.87c-9.45-15.55-32.56-9.78-32.56-9.78"/></g></g></g></g></svg>