<?xml version="1.0" encoding="utf-8"?>
<!-- Generator: Adobe Illustrator 25.0.0, SVG Export Plug-In . SVG Version: 6.00 Build 0)  -->
<svg version="1.1" id="Layer_1" xmlns="http://www.w3.org/2000/svg" xmlns:xlink="http://www.w3.org/1999/xlink" x="0px" y="0px"
	 viewBox="0 0 24 24" style="enable-background:new 0 0 24 24;" xml:space="preserve">
<style type="text/css">
	.st0{fill-rule:evenodd;clip-rule:evenodd;fill:#FFFDFD;}
</style>
<path class="st0" d="M12,21.6C6.4,16.1,1,11.3,1,7.2C1,3.4,4.1,2,6.3,2c1.3,0,4.2,0.5,5.7,4.5c1.6-4,4.5-4.4,5.7-4.4
	C20.3,2,23,3.6,23,7.2C23,11.3,17.9,15.8,12,21.6 M17.7,1c-2.2,0-4.4,1-5.7,3.2C10.7,2,8.5,1,6.3,1C3.1,1,0,3.2,0,7.2
	c0,4.7,5.6,9.4,12,15.8c6.4-6.4,12-11.1,12-15.8C24,3.2,20.9,1,17.7,1"/>
</svg>
