<?xml version="1.0" encoding="utf-8"?>
<!-- Generator: Adobe Illustrator 25.0.0, SVG Export Plug-In . SVG Version: 6.00 Build 0)  -->
<svg version="1.1" id="Layer_1" xmlns="http://www.w3.org/2000/svg" xmlns:xlink="http://www.w3.org/1999/xlink" x="0px" y="0px"
	 viewBox="0 0 24 24" style="enable-background:new 0 0 24 24;" xml:space="preserve">
<style type="text/css">
	.st0{fill-rule:evenodd;clip-rule:evenodd;fill:#FFFFFF;}
</style>
<path class="st0" d="M12,0C6.9,0,3.5,4.9,8.3,13.7c1.6,2.9-1.7,3.6-5.1,4.4C0.1,18.8,0,20.3,0,23l0,1h24l0-1c0-2.7-0.1-4.2-3.2-4.9
	c-3.4-0.8-6.6-1.5-5.1-4.4C20.4,4.8,17,0,12,0 M12,1c1.9,0,3.4,0.8,4.2,2.2c1.4,2.3,0.9,5.8-1.4,10.1c-0.6,1.1-0.7,2.1-0.3,2.9
	c0.9,2,4.8,2.6,6,2.9c2.3,0.5,2.4,1.3,2.4,3.9H1c0-2.6,0.1-3.4,2.4-3.9c1.2-0.3,5.1-0.9,6-2.9c0.4-0.9,0.3-1.8-0.3-2.9
	c-2.2-4.1-2.7-7.8-1.4-10C8.6,1.8,10.1,1,12,1"/>
</svg>
